# Tiled2Unity generated file. Do not modify by hand.
# Wavefront file for 'mapa_mesh_0011.obj'

# Vertices (Count = 272)
v -56 -7 0
v -57 -7 0
v -57 -6 0
v -56 -6 0
v -55 -7 0
v -56 -7 0
v -56 -6 0
v -55 -6 0
v -54 -7 0
v -55 -7 0
v -55 -6 0
v -54 -6 0
v -53 -7 0
v -54 -7 0
v -54 -6 0
v -53 -6 0
v -19 -7 0
v -20 -7 0
v -20 -6 0
v -19 -6 0
v -18 -7 0
v -19 -7 0
v -19 -6 0
v -18 -6 0
v -17 -7 0
v -18 -7 0
v -18 -6 0
v -17 -6 0
v -16 -7 0
v -17 -7 0
v -17 -6 0
v -16 -6 0
v -56 -8 0
v -57 -8 0
v -57 -7 0
v -56 -7 0
v -55 -8 0
v -56 -8 0
v -56 -7 0
v -55 -7 0
v -54 -8 0
v -55 -8 0
v -55 -7 0
v -54 -7 0
v -53 -8 0
v -54 -8 0
v -54 -7 0
v -53 -7 0
v -19 -8 0
v -20 -8 0
v -20 -7 0
v -19 -7 0
v -18 -8 0
v -19 -8 0
v -19 -7 0
v -18 -7 0
v -17 -8 0
v -18 -8 0
v -18 -7 0
v -17 -7 0
v -16 -8 0
v -17 -8 0
v -17 -7 0
v -16 -7 0
v -14 -14 0
v -15 -14 0
v -15 -13 0
v -14 -13 0
v -13 -14 0
v -14 -14 0
v -14 -13 0
v -13 -13 0
v -12 -14 0
v -13 -14 0
v -13 -13 0
v -12 -13 0
v -11 -14 0
v -12 -14 0
v -12 -13 0
v -11 -13 0
v -55 -15 0
v -56 -15 0
v -56 -14 0
v -55 -14 0
v -54 -15 0
v -55 -15 0
v -55 -14 0
v -54 -14 0
v -53 -15 0
v -54 -15 0
v -54 -14 0
v -53 -14 0
v -52 -15 0
v -53 -15 0
v -53 -14 0
v -52 -14 0
v -14 -15 0
v -15 -15 0
v -15 -14 0
v -14 -14 0
v -13 -15 0
v -14 -15 0
v -14 -14 0
v -13 -14 0
v -12 -15 0
v -13 -15 0
v -13 -14 0
v -12 -14 0
v -11 -15 0
v -12 -15 0
v -12 -14 0
v -11 -14 0
v -55 -16 0
v -56 -16 0
v -56 -15 0
v -55 -15 0
v -54 -16 0
v -55 -16 0
v -55 -15 0
v -54 -15 0
v -53 -16 0
v -54 -16 0
v -54 -15 0
v -53 -15 0
v -52 -16 0
v -53 -16 0
v -53 -15 0
v -52 -15 0
v -29 -21 0
v -30 -21 0
v -30 -20 0
v -29 -20 0
v -28 -21 0
v -29 -21 0
v -29 -20 0
v -28 -20 0
v -27 -21 0
v -28 -21 0
v -28 -20 0
v -27 -20 0
v -26 -21 0
v -27 -21 0
v -27 -20 0
v -26 -20 0
v -48 -22 0
v -49 -22 0
v -49 -21 0
v -48 -21 0
v -47 -22 0
v -48 -22 0
v -48 -21 0
v -47 -21 0
v -46 -22 0
v -47 -22 0
v -47 -21 0
v -46 -21 0
v -45 -22 0
v -46 -22 0
v -46 -21 0
v -45 -21 0
v -29 -22 0
v -30 -22 0
v -30 -21 0
v -29 -21 0
v -28 -22 0
v -29 -22 0
v -29 -21 0
v -28 -21 0
v -27 -22 0
v -28 -22 0
v -28 -21 0
v -27 -21 0
v -26 -22 0
v -27 -22 0
v -27 -21 0
v -26 -21 0
v -48 -23 0
v -49 -23 0
v -49 -22 0
v -48 -22 0
v -47 -23 0
v -48 -23 0
v -48 -22 0
v -47 -22 0
v -46 -23 0
v -47 -23 0
v -47 -22 0
v -46 -22 0
v -45 -23 0
v -46 -23 0
v -46 -22 0
v -45 -22 0
v -36 -26 0
v -37 -26 0
v -37 -25 0
v -36 -25 0
v -35 -26 0
v -36 -26 0
v -36 -25 0
v -35 -25 0
v -36 -27 0
v -37 -27 0
v -37 -26 0
v -36 -26 0
v -35 -27 0
v -36 -27 0
v -36 -26 0
v -35 -26 0
v -42 -45 0
v -43 -45 0
v -43 -44 0
v -42 -44 0
v -41 -45 0
v -42 -45 0
v -42 -44 0
v -41 -44 0
v -30 -45 0
v -31 -45 0
v -31 -44 0
v -30 -44 0
v -29 -45 0
v -30 -45 0
v -30 -44 0
v -29 -44 0
v -42 -46 0
v -43 -46 0
v -43 -45 0
v -42 -45 0
v -41 -46 0
v -42 -46 0
v -42 -45 0
v -41 -45 0
v -30 -46 0
v -31 -46 0
v -31 -45 0
v -30 -45 0
v -29 -46 0
v -30 -46 0
v -30 -45 0
v -29 -45 0
v -42 -57 0
v -43 -57 0
v -43 -56 0
v -42 -56 0
v -41 -57 0
v -42 -57 0
v -42 -56 0
v -41 -56 0
v -30 -57 0
v -31 -57 0
v -31 -56 0
v -30 -56 0
v -29 -57 0
v -30 -57 0
v -30 -56 0
v -29 -56 0
v -42 -58 0
v -43 -58 0
v -43 -57 0
v -42 -57 0
v -41 -58 0
v -42 -58 0
v -42 -57 0
v -41 -57 0
v -30 -58 0
v -31 -58 0
v -31 -57 0
v -30 -57 0
v -29 -58 0
v -30 -58 0
v -30 -57 0
v -29 -57 0

# Texture cooridinates (Count = 33)
vt 0.84375 0.40625
vt 0.875 0.40625
vt 0.875 0.4375
vt 0.84375 0.4375
vt 0.8125 0.40625
vt 0.8125 0.4375
vt 0.78125 0.40625
vt 0.78125 0.4375
vt 0.75 0.40625
vt 0.75 0.4375
vt 0.84375 0.375
vt 0.875 0.375
vt 0.8125 0.375
vt 0.78125 0.375
vt 0.75 0.375
vt 0.53125 0.53125
vt 0.5625 0.53125
vt 0.5625 0.5625
vt 0.53125 0.5625
vt 0.5 0.53125
vt 0.5 0.5625
vt 0.53125 0.5
vt 0.5625 0.5
vt 0.5 0.5
vt 0.09375 0.46875
vt 0.125 0.46875
vt 0.125 0.5
vt 0.09375 0.5
vt 0.0625 0.46875
vt 0.0625 0.5
vt 0.09375 0.4375
vt 0.125 0.4375
vt 0.0625 0.4375

# Normal
vn 0 0 -1

# Mesh description
g mapa_mesh_0011

# Faces
f 1/1/1 2/2/1 3/3/1 4/4/1
f 5/5/1 6/1/1 7/4/1 8/6/1
f 9/7/1 10/5/1 11/6/1 12/8/1
f 13/9/1 14/7/1 15/8/1 16/10/1
f 17/1/1 18/2/1 19/3/1 20/4/1
f 21/5/1 22/1/1 23/4/1 24/6/1
f 25/7/1 26/5/1 27/6/1 28/8/1
f 29/9/1 30/7/1 31/8/1 32/10/1
f 33/11/1 34/12/1 35/2/1 36/1/1
f 37/13/1 38/11/1 39/1/1 40/5/1
f 41/14/1 42/13/1 43/5/1 44/7/1
f 45/15/1 46/14/1 47/7/1 48/9/1
f 49/11/1 50/12/1 51/2/1 52/1/1
f 53/13/1 54/11/1 55/1/1 56/5/1
f 57/14/1 58/13/1 59/5/1 60/7/1
f 61/15/1 62/14/1 63/7/1 64/9/1
f 65/1/1 66/2/1 67/3/1 68/4/1
f 69/5/1 70/1/1 71/4/1 72/6/1
f 73/7/1 74/5/1 75/6/1 76/8/1
f 77/9/1 78/7/1 79/8/1 80/10/1
f 81/1/1 82/2/1 83/3/1 84/4/1
f 85/5/1 86/1/1 87/4/1 88/6/1
f 89/7/1 90/5/1 91/6/1 92/8/1
f 93/9/1 94/7/1 95/8/1 96/10/1
f 97/11/1 98/12/1 99/2/1 100/1/1
f 101/13/1 102/11/1 103/1/1 104/5/1
f 105/14/1 106/13/1 107/5/1 108/7/1
f 109/15/1 110/14/1 111/7/1 112/9/1
f 113/11/1 114/12/1 115/2/1 116/1/1
f 117/13/1 118/11/1 119/1/1 120/5/1
f 121/14/1 122/13/1 123/5/1 124/7/1
f 125/15/1 126/14/1 127/7/1 128/9/1
f 129/1/1 130/2/1 131/3/1 132/4/1
f 133/5/1 134/1/1 135/4/1 136/6/1
f 137/7/1 138/5/1 139/6/1 140/8/1
f 141/9/1 142/7/1 143/8/1 144/10/1
f 145/1/1 146/2/1 147/3/1 148/4/1
f 149/5/1 150/1/1 151/4/1 152/6/1
f 153/7/1 154/5/1 155/6/1 156/8/1
f 157/9/1 158/7/1 159/8/1 160/10/1
f 161/11/1 162/12/1 163/2/1 164/1/1
f 165/13/1 166/11/1 167/1/1 168/5/1
f 169/14/1 170/13/1 171/5/1 172/7/1
f 173/15/1 174/14/1 175/7/1 176/9/1
f 177/11/1 178/12/1 179/2/1 180/1/1
f 181/13/1 182/11/1 183/1/1 184/5/1
f 185/14/1 186/13/1 187/5/1 188/7/1
f 189/15/1 190/14/1 191/7/1 192/9/1
f 193/16/1 194/17/1 195/18/1 196/19/1
f 197/20/1 198/16/1 199/19/1 200/21/1
f 201/22/1 202/23/1 203/17/1 204/16/1
f 205/24/1 206/22/1 207/16/1 208/20/1
f 209/25/1 210/26/1 211/27/1 212/28/1
f 213/29/1 214/25/1 215/28/1 216/30/1
f 217/25/1 218/26/1 219/27/1 220/28/1
f 221/29/1 222/25/1 223/28/1 224/30/1
f 225/31/1 226/32/1 227/26/1 228/25/1
f 229/33/1 230/31/1 231/25/1 232/29/1
f 233/31/1 234/32/1 235/26/1 236/25/1
f 237/33/1 238/31/1 239/25/1 240/29/1
f 241/25/1 242/26/1 243/27/1 244/28/1
f 245/29/1 246/25/1 247/28/1 248/30/1
f 249/25/1 250/26/1 251/27/1 252/28/1
f 253/29/1 254/25/1 255/28/1 256/30/1
f 257/31/1 258/32/1 259/26/1 260/25/1
f 261/33/1 262/31/1 263/25/1 264/29/1
f 265/31/1 266/32/1 267/26/1 268/25/1
f 269/33/1 270/31/1 271/25/1 272/29/1

