# Tiled2Unity generated file. Do not modify by hand.
# Wavefront file for 'mapa_mesh_0013.obj'

# Vertices (Count = 496)
v -67 -27 0
v -68 -27 0
v -68 -26 0
v -67 -26 0
v -66 -27 0
v -67 -27 0
v -67 -26 0
v -66 -26 0
v -65 -27 0
v -66 -27 0
v -66 -26 0
v -65 -26 0
v -64 -27 0
v -65 -27 0
v -65 -26 0
v -64 -26 0
v -9 -27 0
v -10 -27 0
v -10 -26 0
v -9 -26 0
v -8 -27 0
v -9 -27 0
v -9 -26 0
v -8 -26 0
v -7 -27 0
v -8 -27 0
v -8 -26 0
v -7 -26 0
v -6 -27 0
v -7 -27 0
v -7 -26 0
v -6 -26 0
v -67 -28 0
v -68 -28 0
v -68 -27 0
v -67 -27 0
v -66 -28 0
v -67 -28 0
v -67 -27 0
v -66 -27 0
v -65 -28 0
v -66 -28 0
v -66 -27 0
v -65 -27 0
v -64 -28 0
v -65 -28 0
v -65 -27 0
v -64 -27 0
v -9 -28 0
v -10 -28 0
v -10 -27 0
v -9 -27 0
v -8 -28 0
v -9 -28 0
v -9 -27 0
v -8 -27 0
v -7 -28 0
v -8 -28 0
v -8 -27 0
v -7 -27 0
v -6 -28 0
v -7 -28 0
v -7 -27 0
v -6 -27 0
v -67 -29 0
v -68 -29 0
v -68 -28 0
v -67 -28 0
v -66 -29 0
v -67 -29 0
v -67 -28 0
v -66 -28 0
v -65 -29 0
v -66 -29 0
v -66 -28 0
v -65 -28 0
v -64 -29 0
v -65 -29 0
v -65 -28 0
v -64 -28 0
v -63 -29 0
v -64 -29 0
v -64 -28 0
v -63 -28 0
v -62 -29 0
v -63 -29 0
v -63 -28 0
v -62 -28 0
v -11 -29 0
v -12 -29 0
v -12 -28 0
v -11 -28 0
v -10 -29 0
v -11 -29 0
v -11 -28 0
v -10 -28 0
v -63 -30 0
v -64 -30 0
v -64 -29 0
v -63 -29 0
v -62 -30 0
v -63 -30 0
v -63 -29 0
v -62 -29 0
v -11 -30 0
v -12 -30 0
v -12 -29 0
v -11 -29 0
v -10 -30 0
v -11 -30 0
v -11 -29 0
v -10 -29 0
v -63 -31 0
v -64 -31 0
v -64 -30 0
v -63 -30 0
v -62 -31 0
v -63 -31 0
v -63 -30 0
v -62 -30 0
v -61 -31 0
v -62 -31 0
v -62 -30 0
v -61 -30 0
v -60 -31 0
v -61 -31 0
v -61 -30 0
v -60 -30 0
v -13 -31 0
v -14 -31 0
v -14 -30 0
v -13 -30 0
v -12 -31 0
v -13 -31 0
v -13 -30 0
v -12 -30 0
v -61 -32 0
v -62 -32 0
v -62 -31 0
v -61 -31 0
v -60 -32 0
v -61 -32 0
v -61 -31 0
v -60 -31 0
v -13 -32 0
v -14 -32 0
v -14 -31 0
v -13 -31 0
v -12 -32 0
v -13 -32 0
v -13 -31 0
v -12 -31 0
v -61 -33 0
v -62 -33 0
v -62 -32 0
v -61 -32 0
v -60 -33 0
v -61 -33 0
v -61 -32 0
v -60 -32 0
v -59 -33 0
v -60 -33 0
v -60 -32 0
v -59 -32 0
v -58 -33 0
v -59 -33 0
v -59 -32 0
v -58 -32 0
v -15 -33 0
v -16 -33 0
v -16 -32 0
v -15 -32 0
v -14 -33 0
v -15 -33 0
v -15 -32 0
v -14 -32 0
v -59 -34 0
v -60 -34 0
v -60 -33 0
v -59 -33 0
v -58 -34 0
v -59 -34 0
v -59 -33 0
v -58 -33 0
v -57 -34 0
v -58 -34 0
v -58 -33 0
v -57 -33 0
v -56 -34 0
v -57 -34 0
v -57 -33 0
v -56 -33 0
v -55 -34 0
v -56 -34 0
v -56 -33 0
v -55 -33 0
v -54 -34 0
v -55 -34 0
v -55 -33 0
v -54 -33 0
v -19 -34 0
v -20 -34 0
v -20 -33 0
v -19 -33 0
v -18 -34 0
v -19 -34 0
v -19 -33 0
v -18 -33 0
v -17 -34 0
v -18 -34 0
v -18 -33 0
v -17 -33 0
v -16 -34 0
v -17 -34 0
v -17 -33 0
v -16 -33 0
v -15 -34 0
v -16 -34 0
v -16 -33 0
v -15 -33 0
v -14 -34 0
v -15 -34 0
v -15 -33 0
v -14 -33 0
v -57 -35 0
v -58 -35 0
v -58 -34 0
v -57 -34 0
v -56 -35 0
v -57 -35 0
v -57 -34 0
v -56 -34 0
v -55 -35 0
v -56 -35 0
v -56 -34 0
v -55 -34 0
v -54 -35 0
v -55 -35 0
v -55 -34 0
v -54 -34 0
v -53 -35 0
v -54 -35 0
v -54 -34 0
v -53 -34 0
v -52 -35 0
v -53 -35 0
v -53 -34 0
v -52 -34 0
v -51 -35 0
v -52 -35 0
v -52 -34 0
v -51 -34 0
v -50 -35 0
v -51 -35 0
v -51 -34 0
v -50 -34 0
v -49 -35 0
v -50 -35 0
v -50 -34 0
v -49 -34 0
v -48 -35 0
v -49 -35 0
v -49 -34 0
v -48 -34 0
v -47 -35 0
v -48 -35 0
v -48 -34 0
v -47 -34 0
v -46 -35 0
v -47 -35 0
v -47 -34 0
v -46 -34 0
v -45 -35 0
v -46 -35 0
v -46 -34 0
v -45 -34 0
v -44 -35 0
v -45 -35 0
v -45 -34 0
v -44 -34 0
v -43 -35 0
v -44 -35 0
v -44 -34 0
v -43 -34 0
v -42 -35 0
v -43 -35 0
v -43 -34 0
v -42 -34 0
v -41 -35 0
v -42 -35 0
v -42 -34 0
v -41 -34 0
v -40 -35 0
v -41 -35 0
v -41 -34 0
v -40 -34 0
v -39 -35 0
v -40 -35 0
v -40 -34 0
v -39 -34 0
v -38 -35 0
v -39 -35 0
v -39 -34 0
v -38 -34 0
v -33 -35 0
v -34 -35 0
v -34 -34 0
v -33 -34 0
v -32 -35 0
v -33 -35 0
v -33 -34 0
v -32 -34 0
v -31 -35 0
v -32 -35 0
v -32 -34 0
v -31 -34 0
v -30 -35 0
v -31 -35 0
v -31 -34 0
v -30 -34 0
v -29 -35 0
v -30 -35 0
v -30 -34 0
v -29 -34 0
v -28 -35 0
v -29 -35 0
v -29 -34 0
v -28 -34 0
v -27 -35 0
v -28 -35 0
v -28 -34 0
v -27 -34 0
v -26 -35 0
v -27 -35 0
v -27 -34 0
v -26 -34 0
v -25 -35 0
v -26 -35 0
v -26 -34 0
v -25 -34 0
v -24 -35 0
v -25 -35 0
v -25 -34 0
v -24 -34 0
v -23 -35 0
v -24 -35 0
v -24 -34 0
v -23 -34 0
v -22 -35 0
v -23 -35 0
v -23 -34 0
v -22 -34 0
v -21 -35 0
v -22 -35 0
v -22 -34 0
v -21 -34 0
v -20 -35 0
v -21 -35 0
v -21 -34 0
v -20 -34 0
v -19 -35 0
v -20 -35 0
v -20 -34 0
v -19 -34 0
v -18 -35 0
v -19 -35 0
v -19 -34 0
v -18 -34 0
v -17 -35 0
v -18 -35 0
v -18 -34 0
v -17 -34 0
v -16 -35 0
v -17 -35 0
v -17 -34 0
v -16 -34 0
v -53 -36 0
v -54 -36 0
v -54 -35 0
v -53 -35 0
v -52 -36 0
v -53 -36 0
v -53 -35 0
v -52 -35 0
v -51 -36 0
v -52 -36 0
v -52 -35 0
v -51 -35 0
v -50 -36 0
v -51 -36 0
v -51 -35 0
v -50 -35 0
v -49 -36 0
v -50 -36 0
v -50 -35 0
v -49 -35 0
v -48 -36 0
v -49 -36 0
v -49 -35 0
v -48 -35 0
v -47 -36 0
v -48 -36 0
v -48 -35 0
v -47 -35 0
v -46 -36 0
v -47 -36 0
v -47 -35 0
v -46 -35 0
v -45 -36 0
v -46 -36 0
v -46 -35 0
v -45 -35 0
v -44 -36 0
v -45 -36 0
v -45 -35 0
v -44 -35 0
v -43 -36 0
v -44 -36 0
v -44 -35 0
v -43 -35 0
v -42 -36 0
v -43 -36 0
v -43 -35 0
v -42 -35 0
v -41 -36 0
v -42 -36 0
v -42 -35 0
v -41 -35 0
v -40 -36 0
v -41 -36 0
v -41 -35 0
v -40 -35 0
v -39 -36 0
v -40 -36 0
v -40 -35 0
v -39 -35 0
v -38 -36 0
v -39 -36 0
v -39 -35 0
v -38 -35 0
v -33 -36 0
v -34 -36 0
v -34 -35 0
v -33 -35 0
v -32 -36 0
v -33 -36 0
v -33 -35 0
v -32 -35 0
v -31 -36 0
v -32 -36 0
v -32 -35 0
v -31 -35 0
v -30 -36 0
v -31 -36 0
v -31 -35 0
v -30 -35 0
v -29 -36 0
v -30 -36 0
v -30 -35 0
v -29 -35 0
v -28 -36 0
v -29 -36 0
v -29 -35 0
v -28 -35 0
v -27 -36 0
v -28 -36 0
v -28 -35 0
v -27 -35 0
v -26 -36 0
v -27 -36 0
v -27 -35 0
v -26 -35 0
v -25 -36 0
v -26 -36 0
v -26 -35 0
v -25 -35 0
v -24 -36 0
v -25 -36 0
v -25 -35 0
v -24 -35 0
v -23 -36 0
v -24 -36 0
v -24 -35 0
v -23 -35 0
v -22 -36 0
v -23 -36 0
v -23 -35 0
v -22 -35 0
v -21 -36 0
v -22 -36 0
v -22 -35 0
v -21 -35 0
v -20 -36 0
v -21 -36 0
v -21 -35 0
v -20 -35 0

# Texture cooridinates (Count = 13)
vt 0.34375 0.28125
vt 0.375 0.28125
vt 0.375 0.3125
vt 0.34375 0.3125
vt 0.3125 0.28125
vt 0.3125 0.3125
vt 0.34375 0.25
vt 0.375 0.25
vt 0.3125 0.25
vt 0.40625 0.28125
vt 0.4375 0.28125
vt 0.4375 0.3125
vt 0.40625 0.3125

# Normal
vn 0 0 -1

# Mesh description
g mapa_mesh_0013

# Faces
f 1/1/1 2/2/1 3/3/1 4/4/1
f 5/5/1 6/1/1 7/4/1 8/6/1
f 9/1/1 10/2/1 11/3/1 12/4/1
f 13/5/1 14/1/1 15/4/1 16/6/1
f 17/1/1 18/2/1 19/3/1 20/4/1
f 21/5/1 22/1/1 23/4/1 24/6/1
f 25/1/1 26/2/1 27/3/1 28/4/1
f 29/5/1 30/1/1 31/4/1 32/6/1
f 33/7/1 34/8/1 35/2/1 36/1/1
f 37/9/1 38/7/1 39/1/1 40/5/1
f 41/7/1 42/8/1 43/2/1 44/1/1
f 45/9/1 46/7/1 47/1/1 48/5/1
f 49/7/1 50/8/1 51/2/1 52/1/1
f 53/9/1 54/7/1 55/1/1 56/5/1
f 57/7/1 58/8/1 59/2/1 60/1/1
f 61/9/1 62/7/1 63/1/1 64/5/1
f 65/10/1 66/11/1 67/12/1 68/13/1
f 69/2/1 70/10/1 71/13/1 72/3/1
f 73/10/1 74/11/1 75/12/1 76/13/1
f 77/2/1 78/10/1 79/13/1 80/3/1
f 81/1/1 82/2/1 83/3/1 84/4/1
f 85/5/1 86/1/1 87/4/1 88/6/1
f 89/1/1 90/2/1 91/3/1 92/4/1
f 93/5/1 94/1/1 95/4/1 96/6/1
f 97/7/1 98/8/1 99/2/1 100/1/1
f 101/9/1 102/7/1 103/1/1 104/5/1
f 105/7/1 106/8/1 107/2/1 108/1/1
f 109/9/1 110/7/1 111/1/1 112/5/1
f 113/10/1 114/11/1 115/12/1 116/13/1
f 117/2/1 118/10/1 119/13/1 120/3/1
f 121/1/1 122/2/1 123/3/1 124/4/1
f 125/5/1 126/1/1 127/4/1 128/6/1
f 129/1/1 130/2/1 131/3/1 132/4/1
f 133/5/1 134/1/1 135/4/1 136/6/1
f 137/7/1 138/8/1 139/2/1 140/1/1
f 141/9/1 142/7/1 143/1/1 144/5/1
f 145/7/1 146/8/1 147/2/1 148/1/1
f 149/9/1 150/7/1 151/1/1 152/5/1
f 153/10/1 154/11/1 155/12/1 156/13/1
f 157/2/1 158/10/1 159/13/1 160/3/1
f 161/1/1 162/2/1 163/3/1 164/4/1
f 165/5/1 166/1/1 167/4/1 168/6/1
f 169/1/1 170/2/1 171/3/1 172/4/1
f 173/5/1 174/1/1 175/4/1 176/6/1
f 177/7/1 178/8/1 179/2/1 180/1/1
f 181/9/1 182/7/1 183/1/1 184/5/1
f 185/1/1 186/2/1 187/3/1 188/4/1
f 189/5/1 190/1/1 191/4/1 192/6/1
f 193/1/1 194/2/1 195/3/1 196/4/1
f 197/5/1 198/1/1 199/4/1 200/6/1
f 201/1/1 202/2/1 203/3/1 204/4/1
f 205/5/1 206/1/1 207/4/1 208/6/1
f 209/1/1 210/2/1 211/3/1 212/4/1
f 213/5/1 214/1/1 215/4/1 216/6/1
f 217/7/1 218/8/1 219/2/1 220/1/1
f 221/9/1 222/7/1 223/1/1 224/5/1
f 225/7/1 226/8/1 227/2/1 228/1/1
f 229/9/1 230/7/1 231/1/1 232/5/1
f 233/7/1 234/8/1 235/2/1 236/1/1
f 237/9/1 238/7/1 239/1/1 240/5/1
f 241/1/1 242/2/1 243/3/1 244/4/1
f 245/5/1 246/1/1 247/4/1 248/6/1
f 249/1/1 250/2/1 251/3/1 252/4/1
f 253/5/1 254/1/1 255/4/1 256/6/1
f 257/1/1 258/2/1 259/3/1 260/4/1
f 261/5/1 262/1/1 263/4/1 264/6/1
f 265/1/1 266/2/1 267/3/1 268/4/1
f 269/5/1 270/1/1 271/4/1 272/6/1
f 273/1/1 274/2/1 275/3/1 276/4/1
f 277/5/1 278/1/1 279/4/1 280/6/1
f 281/1/1 282/2/1 283/3/1 284/4/1
f 285/5/1 286/1/1 287/4/1 288/6/1
f 289/1/1 290/2/1 291/3/1 292/4/1
f 293/5/1 294/1/1 295/4/1 296/6/1
f 297/1/1 298/2/1 299/3/1 300/4/1
f 301/5/1 302/1/1 303/4/1 304/6/1
f 305/1/1 306/2/1 307/3/1 308/4/1
f 309/5/1 310/1/1 311/4/1 312/6/1
f 313/1/1 314/2/1 315/3/1 316/4/1
f 317/5/1 318/1/1 319/4/1 320/6/1
f 321/1/1 322/2/1 323/3/1 324/4/1
f 325/5/1 326/1/1 327/4/1 328/6/1
f 329/1/1 330/2/1 331/3/1 332/4/1
f 333/5/1 334/1/1 335/4/1 336/6/1
f 337/1/1 338/2/1 339/3/1 340/4/1
f 341/5/1 342/1/1 343/4/1 344/6/1
f 345/1/1 346/2/1 347/3/1 348/4/1
f 349/5/1 350/1/1 351/4/1 352/6/1
f 353/1/1 354/2/1 355/3/1 356/4/1
f 357/5/1 358/1/1 359/4/1 360/6/1
f 361/7/1 362/8/1 363/2/1 364/1/1
f 365/9/1 366/7/1 367/1/1 368/5/1
f 369/7/1 370/8/1 371/2/1 372/1/1
f 373/9/1 374/7/1 375/1/1 376/5/1
f 377/7/1 378/8/1 379/2/1 380/1/1
f 381/9/1 382/7/1 383/1/1 384/5/1
f 385/7/1 386/8/1 387/2/1 388/1/1
f 389/9/1 390/7/1 391/1/1 392/5/1
f 393/7/1 394/8/1 395/2/1 396/1/1
f 397/9/1 398/7/1 399/1/1 400/5/1
f 401/7/1 402/8/1 403/2/1 404/1/1
f 405/9/1 406/7/1 407/1/1 408/5/1
f 409/7/1 410/8/1 411/2/1 412/1/1
f 413/9/1 414/7/1 415/1/1 416/5/1
f 417/7/1 418/8/1 419/2/1 420/1/1
f 421/9/1 422/7/1 423/1/1 424/5/1
f 425/7/1 426/8/1 427/2/1 428/1/1
f 429/9/1 430/7/1 431/1/1 432/5/1
f 433/7/1 434/8/1 435/2/1 436/1/1
f 437/9/1 438/7/1 439/1/1 440/5/1
f 441/7/1 442/8/1 443/2/1 444/1/1
f 445/9/1 446/7/1 447/1/1 448/5/1
f 449/7/1 450/8/1 451/2/1 452/1/1
f 453/9/1 454/7/1 455/1/1 456/5/1
f 457/7/1 458/8/1 459/2/1 460/1/1
f 461/9/1 462/7/1 463/1/1 464/5/1
f 465/7/1 466/8/1 467/2/1 468/1/1
f 469/9/1 470/7/1 471/1/1 472/5/1
f 473/7/1 474/8/1 475/2/1 476/1/1
f 477/9/1 478/7/1 479/1/1 480/5/1
f 481/7/1 482/8/1 483/2/1 484/1/1
f 485/9/1 486/7/1 487/1/1 488/5/1
f 489/7/1 490/8/1 491/2/1 492/1/1
f 493/9/1 494/7/1 495/1/1 496/5/1

