# Tiled2Unity generated file. Do not modify by hand.
# Wavefront file for 'mapa_mesh_0006.obj'

# Vertices (Count = 928)
v -67 -29 0
v -68 -29 0
v -68 -28 0
v -67 -28 0
v -66 -29 0
v -67 -29 0
v -67 -28 0
v -66 -28 0
v -65 -29 0
v -66 -29 0
v -66 -28 0
v -65 -28 0
v -64 -29 0
v -65 -29 0
v -65 -28 0
v -64 -28 0
v -9 -29 0
v -10 -29 0
v -10 -28 0
v -9 -28 0
v -8 -29 0
v -9 -29 0
v -9 -28 0
v -8 -28 0
v -7 -29 0
v -8 -29 0
v -8 -28 0
v -7 -28 0
v -6 -29 0
v -7 -29 0
v -7 -28 0
v -6 -28 0
v -67 -30 0
v -68 -30 0
v -68 -29 0
v -67 -29 0
v -66 -30 0
v -67 -30 0
v -67 -29 0
v -66 -29 0
v -65 -30 0
v -66 -30 0
v -66 -29 0
v -65 -29 0
v -64 -30 0
v -65 -30 0
v -65 -29 0
v -64 -29 0
v -9 -30 0
v -10 -30 0
v -10 -29 0
v -9 -29 0
v -8 -30 0
v -9 -30 0
v -9 -29 0
v -8 -29 0
v -7 -30 0
v -8 -30 0
v -8 -29 0
v -7 -29 0
v -6 -30 0
v -7 -30 0
v -7 -29 0
v -6 -29 0
v -67 -31 0
v -68 -31 0
v -68 -30 0
v -67 -30 0
v -66 -31 0
v -67 -31 0
v -67 -30 0
v -66 -30 0
v -65 -31 0
v -66 -31 0
v -66 -30 0
v -65 -30 0
v -64 -31 0
v -65 -31 0
v -65 -30 0
v -64 -30 0
v -63 -31 0
v -64 -31 0
v -64 -30 0
v -63 -30 0
v -62 -31 0
v -63 -31 0
v -63 -30 0
v -62 -30 0
v -11 -31 0
v -12 -31 0
v -12 -30 0
v -11 -30 0
v -10 -31 0
v -11 -31 0
v -11 -30 0
v -10 -30 0
v -9 -31 0
v -10 -31 0
v -10 -30 0
v -9 -30 0
v -8 -31 0
v -9 -31 0
v -9 -30 0
v -8 -30 0
v -7 -31 0
v -8 -31 0
v -8 -30 0
v -7 -30 0
v -6 -31 0
v -7 -31 0
v -7 -30 0
v -6 -30 0
v -67 -32 0
v -68 -32 0
v -68 -31 0
v -67 -31 0
v -66 -32 0
v -67 -32 0
v -67 -31 0
v -66 -31 0
v -65 -32 0
v -66 -32 0
v -66 -31 0
v -65 -31 0
v -64 -32 0
v -65 -32 0
v -65 -31 0
v -64 -31 0
v -63 -32 0
v -64 -32 0
v -64 -31 0
v -63 -31 0
v -62 -32 0
v -63 -32 0
v -63 -31 0
v -62 -31 0
v -11 -32 0
v -12 -32 0
v -12 -31 0
v -11 -31 0
v -10 -32 0
v -11 -32 0
v -11 -31 0
v -10 -31 0
v -9 -32 0
v -10 -32 0
v -10 -31 0
v -9 -31 0
v -8 -32 0
v -9 -32 0
v -9 -31 0
v -8 -31 0
v -7 -32 0
v -8 -32 0
v -8 -31 0
v -7 -31 0
v -6 -32 0
v -7 -32 0
v -7 -31 0
v -6 -31 0
v -63 -33 0
v -64 -33 0
v -64 -32 0
v -63 -32 0
v -62 -33 0
v -63 -33 0
v -63 -32 0
v -62 -32 0
v -61 -33 0
v -62 -33 0
v -62 -32 0
v -61 -32 0
v -60 -33 0
v -61 -33 0
v -61 -32 0
v -60 -32 0
v -13 -33 0
v -14 -33 0
v -14 -32 0
v -13 -32 0
v -12 -33 0
v -13 -33 0
v -13 -32 0
v -12 -32 0
v -11 -33 0
v -12 -33 0
v -12 -32 0
v -11 -32 0
v -10 -33 0
v -11 -33 0
v -11 -32 0
v -10 -32 0
v -63 -34 0
v -64 -34 0
v -64 -33 0
v -63 -33 0
v -62 -34 0
v -63 -34 0
v -63 -33 0
v -62 -33 0
v -61 -34 0
v -62 -34 0
v -62 -33 0
v -61 -33 0
v -60 -34 0
v -61 -34 0
v -61 -33 0
v -60 -33 0
v -13 -34 0
v -14 -34 0
v -14 -33 0
v -13 -33 0
v -12 -34 0
v -13 -34 0
v -13 -33 0
v -12 -33 0
v -11 -34 0
v -12 -34 0
v -12 -33 0
v -11 -33 0
v -10 -34 0
v -11 -34 0
v -11 -33 0
v -10 -33 0
v -61 -35 0
v -62 -35 0
v -62 -34 0
v -61 -34 0
v -60 -35 0
v -61 -35 0
v -61 -34 0
v -60 -34 0
v -59 -35 0
v -60 -35 0
v -60 -34 0
v -59 -34 0
v -58 -35 0
v -59 -35 0
v -59 -34 0
v -58 -34 0
v -15 -35 0
v -16 -35 0
v -16 -34 0
v -15 -34 0
v -14 -35 0
v -15 -35 0
v -15 -34 0
v -14 -34 0
v -13 -35 0
v -14 -35 0
v -14 -34 0
v -13 -34 0
v -12 -35 0
v -13 -35 0
v -13 -34 0
v -12 -34 0
v -61 -36 0
v -62 -36 0
v -62 -35 0
v -61 -35 0
v -60 -36 0
v -61 -36 0
v -61 -35 0
v -60 -35 0
v -59 -36 0
v -60 -36 0
v -60 -35 0
v -59 -35 0
v -58 -36 0
v -59 -36 0
v -59 -35 0
v -58 -35 0
v -57 -36 0
v -58 -36 0
v -58 -35 0
v -57 -35 0
v -56 -36 0
v -57 -36 0
v -57 -35 0
v -56 -35 0
v -55 -36 0
v -56 -36 0
v -56 -35 0
v -55 -35 0
v -54 -36 0
v -55 -36 0
v -55 -35 0
v -54 -35 0
v -19 -36 0
v -20 -36 0
v -20 -35 0
v -19 -35 0
v -18 -36 0
v -19 -36 0
v -19 -35 0
v -18 -35 0
v -17 -36 0
v -18 -36 0
v -18 -35 0
v -17 -35 0
v -16 -36 0
v -17 -36 0
v -17 -35 0
v -16 -35 0
v -15 -36 0
v -16 -36 0
v -16 -35 0
v -15 -35 0
v -14 -36 0
v -15 -36 0
v -15 -35 0
v -14 -35 0
v -13 -36 0
v -14 -36 0
v -14 -35 0
v -13 -35 0
v -12 -36 0
v -13 -36 0
v -13 -35 0
v -12 -35 0
v -59 -37 0
v -60 -37 0
v -60 -36 0
v -59 -36 0
v -58 -37 0
v -59 -37 0
v -59 -36 0
v -58 -36 0
v -57 -37 0
v -58 -37 0
v -58 -36 0
v -57 -36 0
v -56 -37 0
v -57 -37 0
v -57 -36 0
v -56 -36 0
v -55 -37 0
v -56 -37 0
v -56 -36 0
v -55 -36 0
v -54 -37 0
v -55 -37 0
v -55 -36 0
v -54 -36 0
v -53 -37 0
v -54 -37 0
v -54 -36 0
v -53 -36 0
v -52 -37 0
v -53 -37 0
v -53 -36 0
v -52 -36 0
v -51 -37 0
v -52 -37 0
v -52 -36 0
v -51 -36 0
v -50 -37 0
v -51 -37 0
v -51 -36 0
v -50 -36 0
v -49 -37 0
v -50 -37 0
v -50 -36 0
v -49 -36 0
v -48 -37 0
v -49 -37 0
v -49 -36 0
v -48 -36 0
v -47 -37 0
v -48 -37 0
v -48 -36 0
v -47 -36 0
v -46 -37 0
v -47 -37 0
v -47 -36 0
v -46 -36 0
v -45 -37 0
v -46 -37 0
v -46 -36 0
v -45 -36 0
v -44 -37 0
v -45 -37 0
v -45 -36 0
v -44 -36 0
v -43 -37 0
v -44 -37 0
v -44 -36 0
v -43 -36 0
v -42 -37 0
v -43 -37 0
v -43 -36 0
v -42 -36 0
v -41 -37 0
v -42 -37 0
v -42 -36 0
v -41 -36 0
v -40 -37 0
v -41 -37 0
v -41 -36 0
v -40 -36 0
v -39 -37 0
v -40 -37 0
v -40 -36 0
v -39 -36 0
v -38 -37 0
v -39 -37 0
v -39 -36 0
v -38 -36 0
v -33 -37 0
v -34 -37 0
v -34 -36 0
v -33 -36 0
v -32 -37 0
v -33 -37 0
v -33 -36 0
v -32 -36 0
v -31 -37 0
v -32 -37 0
v -32 -36 0
v -31 -36 0
v -30 -37 0
v -31 -37 0
v -31 -36 0
v -30 -36 0
v -29 -37 0
v -30 -37 0
v -30 -36 0
v -29 -36 0
v -28 -37 0
v -29 -37 0
v -29 -36 0
v -28 -36 0
v -27 -37 0
v -28 -37 0
v -28 -36 0
v -27 -36 0
v -26 -37 0
v -27 -37 0
v -27 -36 0
v -26 -36 0
v -25 -37 0
v -26 -37 0
v -26 -36 0
v -25 -36 0
v -24 -37 0
v -25 -37 0
v -25 -36 0
v -24 -36 0
v -23 -37 0
v -24 -37 0
v -24 -36 0
v -23 -36 0
v -22 -37 0
v -23 -37 0
v -23 -36 0
v -22 -36 0
v -21 -37 0
v -22 -37 0
v -22 -36 0
v -21 -36 0
v -20 -37 0
v -21 -37 0
v -21 -36 0
v -20 -36 0
v -19 -37 0
v -20 -37 0
v -20 -36 0
v -19 -36 0
v -18 -37 0
v -19 -37 0
v -19 -36 0
v -18 -36 0
v -17 -37 0
v -18 -37 0
v -18 -36 0
v -17 -36 0
v -16 -37 0
v -17 -37 0
v -17 -36 0
v -16 -36 0
v -15 -37 0
v -16 -37 0
v -16 -36 0
v -15 -36 0
v -14 -37 0
v -15 -37 0
v -15 -36 0
v -14 -36 0
v -59 -38 0
v -60 -38 0
v -60 -37 0
v -59 -37 0
v -58 -38 0
v -59 -38 0
v -59 -37 0
v -58 -37 0
v -57 -38 0
v -58 -38 0
v -58 -37 0
v -57 -37 0
v -56 -38 0
v -57 -38 0
v -57 -37 0
v -56 -37 0
v -55 -38 0
v -56 -38 0
v -56 -37 0
v -55 -37 0
v -54 -38 0
v -55 -38 0
v -55 -37 0
v -54 -37 0
v -53 -38 0
v -54 -38 0
v -54 -37 0
v -53 -37 0
v -52 -38 0
v -53 -38 0
v -53 -37 0
v -52 -37 0
v -51 -38 0
v -52 -38 0
v -52 -37 0
v -51 -37 0
v -50 -38 0
v -51 -38 0
v -51 -37 0
v -50 -37 0
v -49 -38 0
v -50 -38 0
v -50 -37 0
v -49 -37 0
v -48 -38 0
v -49 -38 0
v -49 -37 0
v -48 -37 0
v -47 -38 0
v -48 -38 0
v -48 -37 0
v -47 -37 0
v -46 -38 0
v -47 -38 0
v -47 -37 0
v -46 -37 0
v -45 -38 0
v -46 -38 0
v -46 -37 0
v -45 -37 0
v -44 -38 0
v -45 -38 0
v -45 -37 0
v -44 -37 0
v -43 -38 0
v -44 -38 0
v -44 -37 0
v -43 -37 0
v -42 -38 0
v -43 -38 0
v -43 -37 0
v -42 -37 0
v -41 -38 0
v -42 -38 0
v -42 -37 0
v -41 -37 0
v -40 -38 0
v -41 -38 0
v -41 -37 0
v -40 -37 0
v -39 -38 0
v -40 -38 0
v -40 -37 0
v -39 -37 0
v -38 -38 0
v -39 -38 0
v -39 -37 0
v -38 -37 0
v -33 -38 0
v -34 -38 0
v -34 -37 0
v -33 -37 0
v -32 -38 0
v -33 -38 0
v -33 -37 0
v -32 -37 0
v -31 -38 0
v -32 -38 0
v -32 -37 0
v -31 -37 0
v -30 -38 0
v -31 -38 0
v -31 -37 0
v -30 -37 0
v -29 -38 0
v -30 -38 0
v -30 -37 0
v -29 -37 0
v -28 -38 0
v -29 -38 0
v -29 -37 0
v -28 -37 0
v -27 -38 0
v -28 -38 0
v -28 -37 0
v -27 -37 0
v -26 -38 0
v -27 -38 0
v -27 -37 0
v -26 -37 0
v -25 -38 0
v -26 -38 0
v -26 -37 0
v -25 -37 0
v -24 -38 0
v -25 -38 0
v -25 -37 0
v -24 -37 0
v -23 -38 0
v -24 -38 0
v -24 -37 0
v -23 -37 0
v -22 -38 0
v -23 -38 0
v -23 -37 0
v -22 -37 0
v -21 -38 0
v -22 -38 0
v -22 -37 0
v -21 -37 0
v -20 -38 0
v -21 -38 0
v -21 -37 0
v -20 -37 0
v -19 -38 0
v -20 -38 0
v -20 -37 0
v -19 -37 0
v -18 -38 0
v -19 -38 0
v -19 -37 0
v -18 -37 0
v -17 -38 0
v -18 -38 0
v -18 -37 0
v -17 -37 0
v -16 -38 0
v -17 -38 0
v -17 -37 0
v -16 -37 0
v -15 -38 0
v -16 -38 0
v -16 -37 0
v -15 -37 0
v -14 -38 0
v -15 -38 0
v -15 -37 0
v -14 -37 0
v -57 -39 0
v -58 -39 0
v -58 -38 0
v -57 -38 0
v -56 -39 0
v -57 -39 0
v -57 -38 0
v -56 -38 0
v -55 -39 0
v -56 -39 0
v -56 -38 0
v -55 -38 0
v -54 -39 0
v -55 -39 0
v -55 -38 0
v -54 -38 0
v -53 -39 0
v -54 -39 0
v -54 -38 0
v -53 -38 0
v -52 -39 0
v -53 -39 0
v -53 -38 0
v -52 -38 0
v -51 -39 0
v -52 -39 0
v -52 -38 0
v -51 -38 0
v -50 -39 0
v -51 -39 0
v -51 -38 0
v -50 -38 0
v -49 -39 0
v -50 -39 0
v -50 -38 0
v -49 -38 0
v -48 -39 0
v -49 -39 0
v -49 -38 0
v -48 -38 0
v -47 -39 0
v -48 -39 0
v -48 -38 0
v -47 -38 0
v -46 -39 0
v -47 -39 0
v -47 -38 0
v -46 -38 0
v -45 -39 0
v -46 -39 0
v -46 -38 0
v -45 -38 0
v -44 -39 0
v -45 -39 0
v -45 -38 0
v -44 -38 0
v -43 -39 0
v -44 -39 0
v -44 -38 0
v -43 -38 0
v -42 -39 0
v -43 -39 0
v -43 -38 0
v -42 -38 0
v -41 -39 0
v -42 -39 0
v -42 -38 0
v -41 -38 0
v -40 -39 0
v -41 -39 0
v -41 -38 0
v -40 -38 0
v -39 -39 0
v -40 -39 0
v -40 -38 0
v -39 -38 0
v -38 -39 0
v -39 -39 0
v -39 -38 0
v -38 -38 0
v -33 -39 0
v -34 -39 0
v -34 -38 0
v -33 -38 0
v -32 -39 0
v -33 -39 0
v -33 -38 0
v -32 -38 0
v -31 -39 0
v -32 -39 0
v -32 -38 0
v -31 -38 0
v -30 -39 0
v -31 -39 0
v -31 -38 0
v -30 -38 0
v -29 -39 0
v -30 -39 0
v -30 -38 0
v -29 -38 0
v -28 -39 0
v -29 -39 0
v -29 -38 0
v -28 -38 0
v -27 -39 0
v -28 -39 0
v -28 -38 0
v -27 -38 0
v -26 -39 0
v -27 -39 0
v -27 -38 0
v -26 -38 0
v -25 -39 0
v -26 -39 0
v -26 -38 0
v -25 -38 0
v -24 -39 0
v -25 -39 0
v -25 -38 0
v -24 -38 0
v -23 -39 0
v -24 -39 0
v -24 -38 0
v -23 -38 0
v -22 -39 0
v -23 -39 0
v -23 -38 0
v -22 -38 0
v -21 -39 0
v -22 -39 0
v -22 -38 0
v -21 -38 0
v -20 -39 0
v -21 -39 0
v -21 -38 0
v -20 -38 0
v -19 -39 0
v -20 -39 0
v -20 -38 0
v -19 -38 0
v -18 -39 0
v -19 -39 0
v -19 -38 0
v -18 -38 0
v -17 -39 0
v -18 -39 0
v -18 -38 0
v -17 -38 0
v -16 -39 0
v -17 -39 0
v -17 -38 0
v -16 -38 0
v -53 -40 0
v -54 -40 0
v -54 -39 0
v -53 -39 0
v -52 -40 0
v -53 -40 0
v -53 -39 0
v -52 -39 0
v -51 -40 0
v -52 -40 0
v -52 -39 0
v -51 -39 0
v -50 -40 0
v -51 -40 0
v -51 -39 0
v -50 -39 0
v -49 -40 0
v -50 -40 0
v -50 -39 0
v -49 -39 0
v -48 -40 0
v -49 -40 0
v -49 -39 0
v -48 -39 0
v -47 -40 0
v -48 -40 0
v -48 -39 0
v -47 -39 0
v -46 -40 0
v -47 -40 0
v -47 -39 0
v -46 -39 0
v -45 -40 0
v -46 -40 0
v -46 -39 0
v -45 -39 0
v -44 -40 0
v -45 -40 0
v -45 -39 0
v -44 -39 0
v -43 -40 0
v -44 -40 0
v -44 -39 0
v -43 -39 0
v -42 -40 0
v -43 -40 0
v -43 -39 0
v -42 -39 0
v -41 -40 0
v -42 -40 0
v -42 -39 0
v -41 -39 0
v -40 -40 0
v -41 -40 0
v -41 -39 0
v -40 -39 0
v -39 -40 0
v -40 -40 0
v -40 -39 0
v -39 -39 0
v -38 -40 0
v -39 -40 0
v -39 -39 0
v -38 -39 0
v -33 -40 0
v -34 -40 0
v -34 -39 0
v -33 -39 0
v -32 -40 0
v -33 -40 0
v -33 -39 0
v -32 -39 0
v -31 -40 0
v -32 -40 0
v -32 -39 0
v -31 -39 0
v -30 -40 0
v -31 -40 0
v -31 -39 0
v -30 -39 0
v -29 -40 0
v -30 -40 0
v -30 -39 0
v -29 -39 0
v -28 -40 0
v -29 -40 0
v -29 -39 0
v -28 -39 0
v -27 -40 0
v -28 -40 0
v -28 -39 0
v -27 -39 0
v -26 -40 0
v -27 -40 0
v -27 -39 0
v -26 -39 0
v -25 -40 0
v -26 -40 0
v -26 -39 0
v -25 -39 0
v -24 -40 0
v -25 -40 0
v -25 -39 0
v -24 -39 0
v -23 -40 0
v -24 -40 0
v -24 -39 0
v -23 -39 0
v -22 -40 0
v -23 -40 0
v -23 -39 0
v -22 -39 0
v -21 -40 0
v -22 -40 0
v -22 -39 0
v -21 -39 0
v -20 -40 0
v -21 -40 0
v -21 -39 0
v -20 -39 0

# Texture cooridinates (Count = 17)
vt 0.40625 0.28125
vt 0.4375 0.28125
vt 0.4375 0.3125
vt 0.40625 0.3125
vt 0.375 0.28125
vt 0.375 0.3125
vt 0.40625 0.25
vt 0.4375 0.25
vt 0.375 0.25
vt 0.34375 0.21875
vt 0.375 0.21875
vt 0.34375 0.25
vt 0.3125 0.21875
vt 0.3125 0.25
vt 0.34375 0.1875
vt 0.375 0.1875
vt 0.3125 0.1875

# Normal
vn 0 0 -1

# Mesh description
g mapa_mesh_0006

# Faces
f 1/1/1 2/2/1 3/3/1 4/4/1
f 5/5/1 6/1/1 7/4/1 8/6/1
f 9/1/1 10/2/1 11/3/1 12/4/1
f 13/5/1 14/1/1 15/4/1 16/6/1
f 17/1/1 18/2/1 19/3/1 20/4/1
f 21/5/1 22/1/1 23/4/1 24/6/1
f 25/1/1 26/2/1 27/3/1 28/4/1
f 29/5/1 30/1/1 31/4/1 32/6/1
f 33/7/1 34/8/1 35/2/1 36/1/1
f 37/9/1 38/7/1 39/1/1 40/5/1
f 41/7/1 42/8/1 43/2/1 44/1/1
f 45/9/1 46/7/1 47/1/1 48/5/1
f 49/7/1 50/8/1 51/2/1 52/1/1
f 53/9/1 54/7/1 55/1/1 56/5/1
f 57/7/1 58/8/1 59/2/1 60/1/1
f 61/9/1 62/7/1 63/1/1 64/5/1
f 65/10/1 66/11/1 67/9/1 68/12/1
f 69/13/1 70/10/1 71/12/1 72/14/1
f 73/10/1 74/11/1 75/9/1 76/12/1
f 77/13/1 78/10/1 79/12/1 80/14/1
f 81/1/1 82/2/1 83/3/1 84/4/1
f 85/5/1 86/1/1 87/4/1 88/6/1
f 89/1/1 90/2/1 91/3/1 92/4/1
f 93/5/1 94/1/1 95/4/1 96/6/1
f 97/10/1 98/11/1 99/9/1 100/12/1
f 101/13/1 102/10/1 103/12/1 104/14/1
f 105/10/1 106/11/1 107/9/1 108/12/1
f 109/13/1 110/10/1 111/12/1 112/14/1
f 113/15/1 114/16/1 115/11/1 116/10/1
f 117/17/1 118/15/1 119/10/1 120/13/1
f 121/15/1 122/16/1 123/11/1 124/10/1
f 125/17/1 126/15/1 127/10/1 128/13/1
f 129/7/1 130/8/1 131/2/1 132/1/1
f 133/9/1 134/7/1 135/1/1 136/5/1
f 137/7/1 138/8/1 139/2/1 140/1/1
f 141/9/1 142/7/1 143/1/1 144/5/1
f 145/15/1 146/16/1 147/11/1 148/10/1
f 149/17/1 150/15/1 151/10/1 152/13/1
f 153/15/1 154/16/1 155/11/1 156/10/1
f 157/17/1 158/15/1 159/10/1 160/13/1
f 161/10/1 162/11/1 163/9/1 164/12/1
f 165/13/1 166/10/1 167/12/1 168/14/1
f 169/1/1 170/2/1 171/3/1 172/4/1
f 173/5/1 174/1/1 175/4/1 176/6/1
f 177/1/1 178/2/1 179/3/1 180/4/1
f 181/5/1 182/1/1 183/4/1 184/6/1
f 185/10/1 186/11/1 187/9/1 188/12/1
f 189/13/1 190/10/1 191/12/1 192/14/1
f 193/15/1 194/16/1 195/11/1 196/10/1
f 197/17/1 198/15/1 199/10/1 200/13/1
f 201/7/1 202/8/1 203/2/1 204/1/1
f 205/9/1 206/7/1 207/1/1 208/5/1
f 209/7/1 210/8/1 211/2/1 212/1/1
f 213/9/1 214/7/1 215/1/1 216/5/1
f 217/15/1 218/16/1 219/11/1 220/10/1
f 221/17/1 222/15/1 223/10/1 224/13/1
f 225/10/1 226/11/1 227/9/1 228/12/1
f 229/13/1 230/10/1 231/12/1 232/14/1
f 233/1/1 234/2/1 235/3/1 236/4/1
f 237/5/1 238/1/1 239/4/1 240/6/1
f 241/1/1 242/2/1 243/3/1 244/4/1
f 245/5/1 246/1/1 247/4/1 248/6/1
f 249/10/1 250/11/1 251/9/1 252/12/1
f 253/13/1 254/10/1 255/12/1 256/14/1
f 257/15/1 258/16/1 259/11/1 260/10/1
f 261/17/1 262/15/1 263/10/1 264/13/1
f 265/7/1 266/8/1 267/2/1 268/1/1
f 269/9/1 270/7/1 271/1/1 272/5/1
f 273/1/1 274/2/1 275/3/1 276/4/1
f 277/5/1 278/1/1 279/4/1 280/6/1
f 281/1/1 282/2/1 283/3/1 284/4/1
f 285/5/1 286/1/1 287/4/1 288/6/1
f 289/1/1 290/2/1 291/3/1 292/4/1
f 293/5/1 294/1/1 295/4/1 296/6/1
f 297/1/1 298/2/1 299/3/1 300/4/1
f 301/5/1 302/1/1 303/4/1 304/6/1
f 305/7/1 306/8/1 307/2/1 308/1/1
f 309/9/1 310/7/1 311/1/1 312/5/1
f 313/15/1 314/16/1 315/11/1 316/10/1
f 317/17/1 318/15/1 319/10/1 320/13/1
f 321/10/1 322/11/1 323/9/1 324/12/1
f 325/13/1 326/10/1 327/12/1 328/14/1
f 329/7/1 330/8/1 331/2/1 332/1/1
f 333/9/1 334/7/1 335/1/1 336/5/1
f 337/7/1 338/8/1 339/2/1 340/1/1
f 341/9/1 342/7/1 343/1/1 344/5/1
f 345/1/1 346/2/1 347/3/1 348/4/1
f 349/5/1 350/1/1 351/4/1 352/6/1
f 353/1/1 354/2/1 355/3/1 356/4/1
f 357/5/1 358/1/1 359/4/1 360/6/1
f 361/1/1 362/2/1 363/3/1 364/4/1
f 365/5/1 366/1/1 367/4/1 368/6/1
f 369/1/1 370/2/1 371/3/1 372/4/1
f 373/5/1 374/1/1 375/4/1 376/6/1
f 377/1/1 378/2/1 379/3/1 380/4/1
f 381/5/1 382/1/1 383/4/1 384/6/1
f 385/1/1 386/2/1 387/3/1 388/4/1
f 389/5/1 390/1/1 391/4/1 392/6/1
f 393/1/1 394/2/1 395/3/1 396/4/1
f 397/5/1 398/1/1 399/4/1 400/6/1
f 401/1/1 402/2/1 403/3/1 404/4/1
f 405/5/1 406/1/1 407/4/1 408/6/1
f 409/1/1 410/2/1 411/3/1 412/4/1
f 413/5/1 414/1/1 415/4/1 416/6/1
f 417/1/1 418/2/1 419/3/1 420/4/1
f 421/5/1 422/1/1 423/4/1 424/6/1
f 425/1/1 426/2/1 427/3/1 428/4/1
f 429/5/1 430/1/1 431/4/1 432/6/1
f 433/1/1 434/2/1 435/3/1 436/4/1
f 437/5/1 438/1/1 439/4/1 440/6/1
f 441/1/1 442/2/1 443/3/1 444/4/1
f 445/5/1 446/1/1 447/4/1 448/6/1
f 449/1/1 450/2/1 451/3/1 452/4/1
f 453/5/1 454/1/1 455/4/1 456/6/1
f 457/1/1 458/2/1 459/3/1 460/4/1
f 461/5/1 462/1/1 463/4/1 464/6/1
f 465/7/1 466/8/1 467/2/1 468/1/1
f 469/9/1 470/7/1 471/1/1 472/5/1
f 473/7/1 474/8/1 475/2/1 476/1/1
f 477/9/1 478/7/1 479/1/1 480/5/1
f 481/10/1 482/11/1 483/9/1 484/12/1
f 485/13/1 486/10/1 487/12/1 488/14/1
f 489/15/1 490/16/1 491/11/1 492/10/1
f 493/17/1 494/15/1 495/10/1 496/13/1
f 497/10/1 498/11/1 499/9/1 500/12/1
f 501/13/1 502/10/1 503/12/1 504/14/1
f 505/10/1 506/11/1 507/9/1 508/12/1
f 509/13/1 510/10/1 511/12/1 512/14/1
f 513/7/1 514/8/1 515/2/1 516/1/1
f 517/9/1 518/7/1 519/1/1 520/5/1
f 521/7/1 522/8/1 523/2/1 524/1/1
f 525/9/1 526/7/1 527/1/1 528/5/1
f 529/7/1 530/8/1 531/2/1 532/1/1
f 533/9/1 534/7/1 535/1/1 536/5/1
f 537/7/1 538/8/1 539/2/1 540/1/1
f 541/9/1 542/7/1 543/1/1 544/5/1
f 545/7/1 546/8/1 547/2/1 548/1/1
f 549/9/1 550/7/1 551/1/1 552/5/1
f 553/7/1 554/8/1 555/2/1 556/1/1
f 557/9/1 558/7/1 559/1/1 560/5/1
f 561/7/1 562/8/1 563/2/1 564/1/1
f 565/9/1 566/7/1 567/1/1 568/5/1
f 569/7/1 570/8/1 571/2/1 572/1/1
f 573/9/1 574/7/1 575/1/1 576/5/1
f 577/7/1 578/8/1 579/2/1 580/1/1
f 581/9/1 582/7/1 583/1/1 584/5/1
f 585/7/1 586/8/1 587/2/1 588/1/1
f 589/9/1 590/7/1 591/1/1 592/5/1
f 593/7/1 594/8/1 595/2/1 596/1/1
f 597/9/1 598/7/1 599/1/1 600/5/1
f 601/7/1 602/8/1 603/2/1 604/1/1
f 605/9/1 606/7/1 607/1/1 608/5/1
f 609/7/1 610/8/1 611/2/1 612/1/1
f 613/9/1 614/7/1 615/1/1 616/5/1
f 617/7/1 618/8/1 619/2/1 620/1/1
f 621/9/1 622/7/1 623/1/1 624/5/1
f 625/7/1 626/8/1 627/2/1 628/1/1
f 629/9/1 630/7/1 631/1/1 632/5/1
f 633/10/1 634/11/1 635/9/1 636/12/1
f 637/13/1 638/10/1 639/12/1 640/14/1
f 641/10/1 642/11/1 643/9/1 644/12/1
f 645/13/1 646/10/1 647/12/1 648/14/1
f 649/15/1 650/16/1 651/11/1 652/10/1
f 653/17/1 654/15/1 655/10/1 656/13/1
f 657/15/1 658/16/1 659/11/1 660/10/1
f 661/17/1 662/15/1 663/10/1 664/13/1
f 665/15/1 666/16/1 667/11/1 668/10/1
f 669/17/1 670/15/1 671/10/1 672/13/1
f 673/10/1 674/11/1 675/9/1 676/12/1
f 677/13/1 678/10/1 679/12/1 680/14/1
f 681/10/1 682/11/1 683/9/1 684/12/1
f 685/13/1 686/10/1 687/12/1 688/14/1
f 689/10/1 690/11/1 691/9/1 692/12/1
f 693/13/1 694/10/1 695/12/1 696/14/1
f 697/10/1 698/11/1 699/9/1 700/12/1
f 701/13/1 702/10/1 703/12/1 704/14/1
f 705/10/1 706/11/1 707/9/1 708/12/1
f 709/13/1 710/10/1 711/12/1 712/14/1
f 713/10/1 714/11/1 715/9/1 716/12/1
f 717/13/1 718/10/1 719/12/1 720/14/1
f 721/10/1 722/11/1 723/9/1 724/12/1
f 725/13/1 726/10/1 727/12/1 728/14/1
f 729/10/1 730/11/1 731/9/1 732/12/1
f 733/13/1 734/10/1 735/12/1 736/14/1
f 737/10/1 738/11/1 739/9/1 740/12/1
f 741/13/1 742/10/1 743/12/1 744/14/1
f 745/10/1 746/11/1 747/9/1 748/12/1
f 749/13/1 750/10/1 751/12/1 752/14/1
f 753/10/1 754/11/1 755/9/1 756/12/1
f 757/13/1 758/10/1 759/12/1 760/14/1
f 761/10/1 762/11/1 763/9/1 764/12/1
f 765/13/1 766/10/1 767/12/1 768/14/1
f 769/10/1 770/11/1 771/9/1 772/12/1
f 773/13/1 774/10/1 775/12/1 776/14/1
f 777/10/1 778/11/1 779/9/1 780/12/1
f 781/13/1 782/10/1 783/12/1 784/14/1
f 785/10/1 786/11/1 787/9/1 788/12/1
f 789/13/1 790/10/1 791/12/1 792/14/1
f 793/15/1 794/16/1 795/11/1 796/10/1
f 797/17/1 798/15/1 799/10/1 800/13/1
f 801/15/1 802/16/1 803/11/1 804/10/1
f 805/17/1 806/15/1 807/10/1 808/13/1
f 809/15/1 810/16/1 811/11/1 812/10/1
f 813/17/1 814/15/1 815/10/1 816/13/1
f 817/15/1 818/16/1 819/11/1 820/10/1
f 821/17/1 822/15/1 823/10/1 824/13/1
f 825/15/1 826/16/1 827/11/1 828/10/1
f 829/17/1 830/15/1 831/10/1 832/13/1
f 833/15/1 834/16/1 835/11/1 836/10/1
f 837/17/1 838/15/1 839/10/1 840/13/1
f 841/15/1 842/16/1 843/11/1 844/10/1
f 845/17/1 846/15/1 847/10/1 848/13/1
f 849/15/1 850/16/1 851/11/1 852/10/1
f 853/17/1 854/15/1 855/10/1 856/13/1
f 857/15/1 858/16/1 859/11/1 860/10/1
f 861/17/1 862/15/1 863/10/1 864/13/1
f 865/15/1 866/16/1 867/11/1 868/10/1
f 869/17/1 870/15/1 871/10/1 872/13/1
f 873/15/1 874/16/1 875/11/1 876/10/1
f 877/17/1 878/15/1 879/10/1 880/13/1
f 881/15/1 882/16/1 883/11/1 884/10/1
f 885/17/1 886/15/1 887/10/1 888/13/1
f 889/15/1 890/16/1 891/11/1 892/10/1
f 893/17/1 894/15/1 895/10/1 896/13/1
f 897/15/1 898/16/1 899/11/1 900/10/1
f 901/17/1 902/15/1 903/10/1 904/13/1
f 905/15/1 906/16/1 907/11/1 908/10/1
f 909/17/1 910/15/1 911/10/1 912/13/1
f 913/15/1 914/16/1 915/11/1 916/10/1
f 917/17/1 918/15/1 919/10/1 920/13/1
f 921/15/1 922/16/1 923/11/1 924/10/1
f 925/17/1 926/15/1 927/10/1 928/13/1

