# Tiled2Unity generated file. Do not modify by hand.
# Wavefront file for 'mapa_mesh_0012.obj'

# Vertices (Count = 104)
v -40 -10 0
v -41 -10 0
v -41 -9 0
v -40 -9 0
v -39 -10 0
v -40 -10 0
v -40 -9 0
v -39 -9 0
v -38 -10 0
v -39 -10 0
v -39 -9 0
v -38 -9 0
v -37 -10 0
v -38 -10 0
v -38 -9 0
v -37 -9 0
v -36 -10 0
v -37 -10 0
v -37 -9 0
v -36 -9 0
v -35 -10 0
v -36 -10 0
v -36 -9 0
v -35 -9 0
v -40 -11 0
v -41 -11 0
v -41 -10 0
v -40 -10 0
v -39 -11 0
v -40 -11 0
v -40 -10 0
v -39 -10 0
v -38 -11 0
v -39 -11 0
v -39 -10 0
v -38 -10 0
v -37 -11 0
v -38 -11 0
v -38 -10 0
v -37 -10 0
v -36 -11 0
v -37 -11 0
v -37 -10 0
v -36 -10 0
v -35 -11 0
v -36 -11 0
v -36 -10 0
v -35 -10 0
v -37 -35 0
v -38 -35 0
v -38 -34 0
v -37 -34 0
v -36 -35 0
v -37 -35 0
v -37 -34 0
v -36 -34 0
v -35 -35 0
v -36 -35 0
v -36 -34 0
v -35 -34 0
v -34 -35 0
v -35 -35 0
v -35 -34 0
v -34 -34 0
v -37 -36 0
v -38 -36 0
v -38 -35 0
v -37 -35 0
v -36 -36 0
v -37 -36 0
v -37 -35 0
v -36 -35 0
v -35 -36 0
v -36 -36 0
v -36 -35 0
v -35 -35 0
v -34 -36 0
v -35 -36 0
v -35 -35 0
v -34 -35 0
v -37 -37 0
v -38 -37 0
v -38 -36 0
v -37 -36 0
v -36 -37 0
v -37 -37 0
v -37 -36 0
v -36 -36 0
v -35 -37 0
v -36 -37 0
v -36 -36 0
v -35 -36 0
v -34 -37 0
v -35 -37 0
v -35 -36 0
v -34 -36 0
v -37 -38 0
v -38 -38 0
v -38 -37 0
v -37 -37 0
v -34 -38 0
v -35 -38 0
v -35 -37 0
v -34 -37 0

# Texture cooridinates (Count = 45)
vt 0.28125 0.21875
vt 0.3125 0.21875
vt 0.3125 0.25
vt 0.28125 0.25
vt 0.25 0.21875
vt 0.25 0.25
vt 0.21875 0.21875
vt 0.21875 0.25
vt 0.1875 0.21875
vt 0.1875 0.25
vt 0.15625 0.21875
vt 0.15625 0.25
vt 0.125 0.21875
vt 0.125 0.25
vt 0.28125 0.1875
vt 0.3125 0.1875
vt 0.25 0.1875
vt 0.21875 0.1875
vt 0.1875 0.1875
vt 0.15625 0.1875
vt 0.125 0.1875
vt 0.875 0.96875
vt 0.90625 0.96875
vt 0.90625 1
vt 0.875 1
vt 0.84375 0.96875
vt 0.84375 1
vt 0.8125 0.96875
vt 0.8125 1
vt 0.78125 0.96875
vt 0.78125 1
vt 0.875 0.9375
vt 0.90625 0.9375
vt 0.84375 0.9375
vt 0.8125 0.9375
vt 0.78125 0.9375
vt 0.875 0.90625
vt 0.90625 0.90625
vt 0.84375 0.90625
vt 0.8125 0.90625
vt 0.78125 0.90625
vt 0.875 0.875
vt 0.90625 0.875
vt 0.78125 0.875
vt 0.8125 0.875

# Normal
vn 0 0 -1

# Mesh description
g mapa_mesh_0012

# Faces
f 1/1/1 2/2/1 3/3/1 4/4/1
f 5/5/1 6/1/1 7/4/1 8/6/1
f 9/7/1 10/5/1 11/6/1 12/8/1
f 13/9/1 14/7/1 15/8/1 16/10/1
f 17/11/1 18/9/1 19/10/1 20/12/1
f 21/13/1 22/11/1 23/12/1 24/14/1
f 25/15/1 26/16/1 27/2/1 28/1/1
f 29/17/1 30/15/1 31/1/1 32/5/1
f 33/18/1 34/17/1 35/5/1 36/7/1
f 37/19/1 38/18/1 39/7/1 40/9/1
f 41/20/1 42/19/1 43/9/1 44/11/1
f 45/21/1 46/20/1 47/11/1 48/13/1
f 49/22/1 50/23/1 51/24/1 52/25/1
f 53/26/1 54/22/1 55/25/1 56/27/1
f 57/28/1 58/26/1 59/27/1 60/29/1
f 61/30/1 62/28/1 63/29/1 64/31/1
f 65/32/1 66/33/1 67/23/1 68/22/1
f 69/34/1 70/32/1 71/22/1 72/26/1
f 73/35/1 74/34/1 75/26/1 76/28/1
f 77/36/1 78/35/1 79/28/1 80/30/1
f 81/37/1 82/38/1 83/33/1 84/32/1
f 85/39/1 86/37/1 87/32/1 88/34/1
f 89/40/1 90/39/1 91/34/1 92/35/1
f 93/41/1 94/40/1 95/35/1 96/36/1
f 97/42/1 98/43/1 99/38/1 100/37/1
f 101/44/1 102/45/1 103/40/1 104/41/1

