# Tiled2Unity generated file. Do not modify by hand.
# Wavefront file for 'mapa_mesh_0010.obj'

# Vertices (Count = 148)
v -39 -32 0
v -40 -32 0
v -40 -31 0
v -39 -31 0
v -38 -51 0
v -39 -51 0
v -39 -50 0
v -38 -50 0
v -37 -51 0
v -38 -51 0
v -38 -50 0
v -37 -50 0
v -36 -51 0
v -37 -51 0
v -37 -50 0
v -36 -50 0
v -35 -51 0
v -36 -51 0
v -36 -50 0
v -35 -50 0
v -34 -51 0
v -35 -51 0
v -35 -50 0
v -34 -50 0
v -33 -51 0
v -34 -51 0
v -34 -50 0
v -33 -50 0
v -38 -52 0
v -39 -52 0
v -39 -51 0
v -38 -51 0
v -37 -52 0
v -38 -52 0
v -38 -51 0
v -37 -51 0
v -36 -52 0
v -37 -52 0
v -37 -51 0
v -36 -51 0
v -35 -52 0
v -36 -52 0
v -36 -51 0
v -35 -51 0
v -34 -52 0
v -35 -52 0
v -35 -51 0
v -34 -51 0
v -33 -52 0
v -34 -52 0
v -34 -51 0
v -33 -51 0
v -38 -53 0
v -39 -53 0
v -39 -52 0
v -38 -52 0
v -37 -53 0
v -38 -53 0
v -38 -52 0
v -37 -52 0
v -36 -53 0
v -37 -53 0
v -37 -52 0
v -36 -52 0
v -35 -53 0
v -36 -53 0
v -36 -52 0
v -35 -52 0
v -34 -53 0
v -35 -53 0
v -35 -52 0
v -34 -52 0
v -33 -53 0
v -34 -53 0
v -34 -52 0
v -33 -52 0
v -38 -54 0
v -39 -54 0
v -39 -53 0
v -38 -53 0
v -37 -54 0
v -38 -54 0
v -38 -53 0
v -37 -53 0
v -36 -54 0
v -37 -54 0
v -37 -53 0
v -36 -53 0
v -35 -54 0
v -36 -54 0
v -36 -53 0
v -35 -53 0
v -34 -54 0
v -35 -54 0
v -35 -53 0
v -34 -53 0
v -33 -54 0
v -34 -54 0
v -34 -53 0
v -33 -53 0
v -38 -55 0
v -39 -55 0
v -39 -54 0
v -38 -54 0
v -37 -55 0
v -38 -55 0
v -38 -54 0
v -37 -54 0
v -36 -55 0
v -37 -55 0
v -37 -54 0
v -36 -54 0
v -35 -55 0
v -36 -55 0
v -36 -54 0
v -35 -54 0
v -34 -55 0
v -35 -55 0
v -35 -54 0
v -34 -54 0
v -33 -55 0
v -34 -55 0
v -34 -54 0
v -33 -54 0
v -38 -56 0
v -39 -56 0
v -39 -55 0
v -38 -55 0
v -37 -56 0
v -38 -56 0
v -38 -55 0
v -37 -55 0
v -36 -56 0
v -37 -56 0
v -37 -55 0
v -36 -55 0
v -35 -56 0
v -36 -56 0
v -36 -55 0
v -35 -55 0
v -34 -56 0
v -35 -56 0
v -35 -55 0
v -34 -55 0
v -33 -56 0
v -34 -56 0
v -34 -55 0
v -33 -55 0

# Texture cooridinates (Count = 49)
vt 0.15625 0.1875
vt 0.1875 0.1875
vt 0.1875 0.21875
vt 0.15625 0.21875
vt 0.15625 0.34375
vt 0.1875 0.34375
vt 0.1875 0.375
vt 0.15625 0.375
vt 0.125 0.34375
vt 0.125 0.375
vt 0.09375 0.34375
vt 0.09375 0.375
vt 0.0625 0.34375
vt 0.0625 0.375
vt 0.03125 0.34375
vt 0.03125 0.375
vt 0 0.34375
vt 0 0.375
vt 0.15625 0.3125
vt 0.1875 0.3125
vt 0.125 0.3125
vt 0.09375 0.3125
vt 0.0625 0.3125
vt 0.03125 0.3125
vt 0 0.3125
vt 0.15625 0.28125
vt 0.1875 0.28125
vt 0.125 0.28125
vt 0.09375 0.28125
vt 0.0625 0.28125
vt 0.03125 0.28125
vt 0 0.28125
vt 0.15625 0.25
vt 0.1875 0.25
vt 0.125 0.25
vt 0.09375 0.25
vt 0.0625 0.25
vt 0.03125 0.25
vt 0 0.25
vt 0.125 0.21875
vt 0.09375 0.21875
vt 0.0625 0.21875
vt 0.03125 0.21875
vt 0 0.21875
vt 0.125 0.1875
vt 0.09375 0.1875
vt 0.0625 0.1875
vt 0.03125 0.1875
vt 0 0.1875

# Normal
vn 0 0 -1

# Mesh description
g mapa_mesh_0010

# Faces
f 1/1/1 2/2/1 3/3/1 4/4/1
f 5/5/1 6/6/1 7/7/1 8/8/1
f 9/9/1 10/5/1 11/8/1 12/10/1
f 13/11/1 14/9/1 15/10/1 16/12/1
f 17/13/1 18/11/1 19/12/1 20/14/1
f 21/15/1 22/13/1 23/14/1 24/16/1
f 25/17/1 26/15/1 27/16/1 28/18/1
f 29/19/1 30/20/1 31/6/1 32/5/1
f 33/21/1 34/19/1 35/5/1 36/9/1
f 37/22/1 38/21/1 39/9/1 40/11/1
f 41/23/1 42/22/1 43/11/1 44/13/1
f 45/24/1 46/23/1 47/13/1 48/15/1
f 49/25/1 50/24/1 51/15/1 52/17/1
f 53/26/1 54/27/1 55/20/1 56/19/1
f 57/28/1 58/26/1 59/19/1 60/21/1
f 61/29/1 62/28/1 63/21/1 64/22/1
f 65/30/1 66/29/1 67/22/1 68/23/1
f 69/31/1 70/30/1 71/23/1 72/24/1
f 73/32/1 74/31/1 75/24/1 76/25/1
f 77/33/1 78/34/1 79/27/1 80/26/1
f 81/35/1 82/33/1 83/26/1 84/28/1
f 85/36/1 86/35/1 87/28/1 88/29/1
f 89/37/1 90/36/1 91/29/1 92/30/1
f 93/38/1 94/37/1 95/30/1 96/31/1
f 97/39/1 98/38/1 99/31/1 100/32/1
f 101/4/1 102/3/1 103/34/1 104/33/1
f 105/40/1 106/4/1 107/33/1 108/35/1
f 109/41/1 110/40/1 111/35/1 112/36/1
f 113/42/1 114/41/1 115/36/1 116/37/1
f 117/43/1 118/42/1 119/37/1 120/38/1
f 121/44/1 122/43/1 123/38/1 124/39/1
f 125/1/1 126/2/1 127/3/1 128/4/1
f 129/45/1 130/1/1 131/4/1 132/40/1
f 133/46/1 134/45/1 135/40/1 136/41/1
f 137/47/1 138/46/1 139/41/1 140/42/1
f 141/48/1 142/47/1 143/42/1 144/43/1
f 145/49/1 146/48/1 147/43/1 148/44/1

